<svg width="50" height="50" viewBox="0 0 50 50" fill="none" xmlns="http://www.w3.org/2000/svg">
<rect x="2" y="2" width="46" height="46" rx="23" stroke="white" stroke-width="4"/>
<ellipse cx="25" cy="25" rx="21.875" ry="21.875" fill="#FF3366"/>
<path d="M17.749 16.9678C19.2592 16.9678 20.4834 15.7436 20.4834 14.2334C20.4834 12.7232 19.2592 11.499 17.749 11.499C16.2389 11.499 15.0146 12.7232 15.0146 14.2334C15.0146 15.7436 16.2389 16.9678 17.749 16.9678Z" fill="white"/>
<path d="M12.0361 19.3115L11.084 22.8027H14.209C13.5824 25.3499 12.2705 30.708 12.0361 31.7627C11.7432 33.081 11.6943 36.8408 15.6494 36.8408C18.41 36.8408 20.1708 35.0574 21.1529 33.6013L20.4102 36.5723H24.8535L27.1729 27.1845C27.5024 25.6226 28.2782 22.6074 31.0791 22.6074C34.4102 22.6074 33.1882 26.552 32.5893 28.4851C32.5649 28.5639 32.5415 28.6393 32.5195 28.7109C32.0703 30.1758 31.5918 31.8848 31.5918 33.0566C31.5918 34.375 32.2021 36.8408 35.6201 36.8408C39.0381 36.8408 40.4948 33.4554 40.7959 31.7627L39.0625 31.0547C38.9404 31.958 37.8418 33.9111 36.8164 33.9111C35.4127 33.9111 36.1178 31.5445 36.8703 29.0188C37.2041 27.8986 37.5472 26.747 37.7197 25.7568C38.156 23.2533 37.7197 18.9941 33.374 18.9941C30.675 18.9941 28.5556 21.3992 27.5473 23.0689L28.3936 19.3115H21.6309L20.7031 22.8027H23.8525C23.8525 22.8027 21.9836 30.4192 21.8628 30.658C20.5933 33.1665 18.6731 34.0085 17.2363 33.9111C16.084 33.833 16.2191 32.4463 16.4307 31.7627L19.5557 19.3115H12.0361Z" fill="white"/>
</svg>
