<svg width="36" height="36" viewBox="0 0 36 36" fill="none" xmlns="http://www.w3.org/2000/svg">
<path d="M18 36C8.0586 36 0 27.9414 0 18C0 8.0586 8.0586 0 18 0C27.9414 0 36 8.0586 36 18C36 27.9414 27.9414 36 18 36ZM18 32.4C21.8191 32.4 25.4818 30.8829 28.1823 28.1823C30.8829 25.4818 32.4 21.8191 32.4 18C32.4 14.1809 30.8829 10.5182 28.1823 7.81766C25.4818 5.11714 21.8191 3.6 18 3.6C14.1809 3.6 10.5182 5.11714 7.81766 7.81766C5.11714 10.5182 3.6 14.1809 3.6 18C3.6 21.8191 5.11714 25.4818 7.81766 28.1823C10.5182 30.8829 14.1809 32.4 18 32.4ZM9 23.976C12.8791 23.6973 16.527 22.0271 19.2726 19.2726C22.0271 16.527 23.6973 12.8791 23.976 9C25.306 9.8861 26.4228 11.0563 27.2458 12.4263C28.0688 13.7962 28.5775 15.3318 28.7352 16.9221C28.893 18.5125 28.6957 20.118 28.1579 21.6229C27.62 23.1279 26.7548 24.4946 25.6247 25.6247C24.4946 26.7548 23.1279 27.62 21.6229 28.1579C20.118 28.6957 18.5125 28.893 16.9221 28.7352C15.3318 28.5775 13.7962 28.0688 12.4263 27.2458C11.0563 26.4228 9.8861 25.306 9 23.976Z" fill="url(#paint0_linear_15_1873)"/>
<defs>
<linearGradient id="paint0_linear_15_1873" x1="5.4" y1="30" x2="31.2" y2="5.4" gradientUnits="userSpaceOnUse">
<stop stop-color="#30444E"/>
<stop offset="1" stop-color="#ACACAC"/>
</linearGradient>
</defs>
</svg>
