<svg width="50" height="50" viewBox="0 0 50 50" fill="none" xmlns="http://www.w3.org/2000/svg">
<path d="M25 48C12.2975 48 2 37.7025 2 25C2 12.2975 12.2975 2 25 2C37.7025 2 48 12.2975 48 25C48 37.7025 37.7025 48 25 48Z" fill="#2E001F" stroke="white" stroke-width="4"/>
<path d="M26.1533 35.9278L20.6104 24.8473L25.9041 13.7547C26.0038 13.587 25.944 13.4612 25.7844 13.4612H22.5731C22.3808 13.4612 22.2988 13.5911 22.2141 13.7338L18.5439 22.1213L14.7741 13.7128C14.6943 13.5241 14.6145 13.4822 14.4151 13.4822H10.9843C10.8646 13.4822 10.7449 13.608 10.8646 13.7757L16.1504 24.8473L10.6351 35.9488C10.5354 36.0746 10.5553 36.2423 10.7548 36.2423H14.0459C14.2055 36.2423 14.3052 36.1794 14.405 36.0117L18.2846 27.3216L22.1441 35.9907C22.2438 36.2004 22.3436 36.2423 22.563 36.2423H26.0336C26.1932 36.2423 26.253 36.0956 26.1533 35.9278Z" fill="#FF26BE"/>
<path fill-rule="evenodd" clip-rule="evenodd" d="M35.1791 19.2061C30.2723 19.2061 27.1806 23.0225 27.1806 27.9082C27.1806 33.6118 30.2336 36.2633 34.562 36.2424C36.2375 36.2424 38.0314 36.0232 39.7069 35.1844C39.8266 35.1215 39.8665 35.0796 39.8665 34.9538C39.7667 34.1779 39.7667 33.465 39.7667 32.8988V13.6494C39.7667 13.5445 39.7268 13.4816 39.5673 13.4816H36.4158C36.316 13.4816 36.2163 13.5655 36.2163 13.6913V19.2481C35.8174 19.2061 35.5979 19.2061 35.1791 19.2061ZM35.0594 22.3305C35.5381 22.3305 35.937 22.4144 36.2163 22.5402V32.9198C35.8373 33.0875 35.3187 33.1504 34.84 33.1504C32.5861 33.1504 30.7909 31.5987 30.7909 27.7405C30.7909 24.3645 32.5462 22.3305 35.0594 22.3305Z" fill="#FF26BE"/>
</svg>
